<?xml version="1.0" encoding="utf-8"?>
<!-- Generator: Adobe Illustrator 19.2.1, SVG Export Plug-In . SVG Version: 6.00 Build 0)  -->
<!DOCTYPE svg PUBLIC "-//W3C//DTD SVG 1.1//EN" "http://www.w3.org/Graphics/SVG/1.1/DTD/svg11.dtd">
<svg version="1.1" id="Layer_1" xmlns="http://www.w3.org/2000/svg" xmlns:xlink="http://www.w3.org/1999/xlink" x="0px" y="0px"
	 viewBox="0 0 1200 562" enable-background="new 0 0 1200 562" xml:space="preserve">
<g>
	<path fill="#5AA436" d="M1142.7,200.2c-28.2,0-41.8,9.6-60.4,33.2h-1v-28.2H1028v356.2h56.3V452.7c22.1,18.1,33.7,28.2,58.4,28.2
		c35.2,0,57.3-26.2,57.3-75.5V275.6C1200,226.3,1177.9,200.2,1142.7,200.2z M1143.6,390.8c0,35.7-12.1,43.8-27.2,43.8
		c-11.1,0-21.1-6-32.2-14.1v-160c11.1-8.1,21.1-14.1,32.2-14.1c15.1,0,27.2,8,27.2,43.8V390.8z"/>
	<polygon fill="#FFFFFF" points="62.4,112.7 0,112.7 0,475.8 153.5,475.8 153.5,421.5 62.4,421.5 	"/>
	<path fill="#FFFFFF" d="M263.1,200.2c-64.4,0-87.5,41.2-87.5,100.6v79.5c0,59.4,23.1,100.6,87.5,100.6c62.9,0,86.5-39.2,87.5-96.6
		h-56.3v6c0,31.2-11.1,44.3-31.2,44.3c-20.1,0-31.2-13.1-31.2-44.3v-39.2h118.7v-50.3C350.7,241.4,327.5,200.2,263.1,200.2z
		 M294.3,304.8h-62.4v-14.1c0-31.2,11.1-44.3,31.2-44.3c20.1,0,31.2,13.1,31.2,44.3V304.8z"/>
	<path fill="#5AA436" d="M962.3,0l-65.1,112.7h33.7v274.1c0,26.7-10.6,39.7-33.2,39.7c-22.6,0-33.2-13.1-33.2-39.7V112.7h-62.4
		v271.7c0,62.4,36.2,96.6,95.6,96.6c59.4,0,95.6-34.2,95.6-96.6V112.7h34.1L962.3,0z"/>
	<path fill="#FFFFFF" d="M703.2,228.4c-22.1-18.1-33.7-28.2-58.3-28.2c-35.2,0-57.4,26.2-57.4,75.5v129.8
		c0,49.3,22.1,75.5,57.4,75.5c28.2,0,41.8-9.5,60.4-33.2h1v28.2h53.3V112.7h-56.3V228.4z M703.2,420.5
		c-11.1,8.1-21.1,14.1-32.2,14.1c-15.1,0-27.2-8-27.2-43.8V290.2c0-35.7,12.1-43.8,27.2-43.8c11.1,0,21.1,6,32.2,14.1V420.5z"/>
	<path fill="#FFFFFF" d="M503.6,200.2c-32.7,0-44.8,12.1-68.4,32.2v-27.2h-53.3v270.6h56.3V263.6c13.1-9.6,24.1-17.1,36.2-17.1
		c12.1,0,20.1,6,20.1,19.6v209.8h56.3V257C550.8,221.8,533.2,200.2,503.6,200.2z"/>
</g>
</svg>
